<mxfile host="65bd71144e">
    <diagram id="Kj4BilxelOrJukMYahr7" name="ページ1">
        <mxGraphModel dx="1456" dy="579" grid="1" gridSize="10" guides="1" tooltips="1" connect="1" arrows="1" fold="1" page="1" pageScale="1" pageWidth="827" pageHeight="1169" math="0" shadow="0">
            <root>
                <mxCell id="0"/>
                <mxCell id="1" parent="0"/>
                <mxCell id="2" value="" style="rounded=0;whiteSpace=wrap;html=1;" parent="1" vertex="1">
                    <mxGeometry x="40" y="150" width="1430" height="480" as="geometry"/>
                </mxCell>
                <mxCell id="3" value="カメラの画像" style="rounded=0;whiteSpace=wrap;html=1;" parent="1" vertex="1">
                    <mxGeometry x="50" y="180" width="410" height="240" as="geometry"/>
                </mxCell>
                <mxCell id="4" value="撮影日時" style="rounded=0;whiteSpace=wrap;html=1;" parent="1" vertex="1">
                    <mxGeometry x="50" y="160" width="120" height="20" as="geometry"/>
                </mxCell>
                <mxCell id="5" value="機体に送信するコマンド入力ボックス" style="rounded=0;whiteSpace=wrap;html=1;" parent="1" vertex="1">
                    <mxGeometry x="50" y="570" width="410" height="45" as="geometry"/>
                </mxCell>
                <mxCell id="6" value="機体から送られてきた最新のセンサ値&lt;br&gt;例：x軸加速度（9軸センサー）　0.203&lt;br&gt;" style="rounded=0;whiteSpace=wrap;html=1;" parent="1" vertex="1">
                    <mxGeometry x="50" y="430" width="410" height="130" as="geometry"/>
                </mxCell>
                <mxCell id="7" value="" style="rounded=0;whiteSpace=wrap;html=1;" parent="1" vertex="1">
                    <mxGeometry x="1120" y="180" width="330" height="440" as="geometry"/>
                </mxCell>
                <mxCell id="8" value="" style="rounded=0;whiteSpace=wrap;html=1;" parent="1" vertex="1">
                    <mxGeometry x="1130" y="190" width="150" height="80" as="geometry"/>
                </mxCell>
                <mxCell id="9" value="各センサの値をグラフにする&lt;br&gt;例：左図" style="rounded=0;whiteSpace=wrap;html=1;" parent="1" vertex="1">
                    <mxGeometry x="1300" y="190" width="140" height="80" as="geometry"/>
                </mxCell>
                <mxCell id="11" value="" style="endArrow=none;html=1;" parent="1" edge="1">
                    <mxGeometry width="50" height="50" relative="1" as="geometry">
                        <mxPoint x="1130" y="240" as="sourcePoint"/>
                        <mxPoint x="1230" y="240" as="targetPoint"/>
                        <Array as="points">
                            <mxPoint x="1170" y="220"/>
                            <mxPoint x="1230" y="240"/>
                            <mxPoint x="1290" y="230"/>
                        </Array>
                    </mxGeometry>
                </mxCell>
                <mxCell id="12" value="" style="rounded=0;whiteSpace=wrap;html=1;" parent="1" vertex="1">
                    <mxGeometry x="1130" y="290" width="150" height="80" as="geometry"/>
                </mxCell>
                <mxCell id="13" value="" style="rounded=0;whiteSpace=wrap;html=1;" parent="1" vertex="1">
                    <mxGeometry x="1295" y="290" width="150" height="80" as="geometry"/>
                </mxCell>
                <mxCell id="14" value="" style="rounded=0;whiteSpace=wrap;html=1;" parent="1" vertex="1">
                    <mxGeometry x="1130" y="400" width="150" height="80" as="geometry"/>
                </mxCell>
                <mxCell id="15" value="" style="rounded=0;whiteSpace=wrap;html=1;" parent="1" vertex="1">
                    <mxGeometry x="1295" y="400" width="150" height="80" as="geometry"/>
                </mxCell>
                <mxCell id="16" value="" style="rounded=0;whiteSpace=wrap;html=1;" parent="1" vertex="1">
                    <mxGeometry x="1130" y="500" width="150" height="80" as="geometry"/>
                </mxCell>
                <mxCell id="17" value="" style="rounded=0;whiteSpace=wrap;html=1;" parent="1" vertex="1">
                    <mxGeometry x="1295" y="500" width="150" height="80" as="geometry"/>
                </mxCell>
                <mxCell id="18" value="機体から送信された緯度経度をマップに落とし込み、進んだルートを線で結ぶ" style="rounded=0;whiteSpace=wrap;html=1;" parent="1" vertex="1">
                    <mxGeometry x="470" y="180" width="310" height="330" as="geometry"/>
                </mxCell>
                <mxCell id="19" value="◀　画像の切り替えボタン　▶" style="rounded=0;whiteSpace=wrap;html=1;" parent="1" vertex="1">
                    <mxGeometry x="170" y="380" width="170" height="30" as="geometry"/>
                </mxCell>
                <mxCell id="20" value="9軸センサの値から機体の姿勢をリアルタイムで描画" style="rounded=0;whiteSpace=wrap;html=1;" parent="1" vertex="1">
                    <mxGeometry x="790" y="180" width="310" height="330" as="geometry"/>
                </mxCell>
                <mxCell id="21" value="コマンド一覧" style="rounded=0;whiteSpace=wrap;html=1;" vertex="1" parent="1">
                    <mxGeometry x="470" y="520" width="630" height="95" as="geometry"/>
                </mxCell>
            </root>
        </mxGraphModel>
    </diagram>
</mxfile>